<?xml version="1.0" encoding="UTF-8"?>
<svg xmlns="http://www.w3.org/2000/svg" xmlns:xlink="http://www.w3.org/1999/xlink" width="16px" height="16px" viewBox="0 0 16 16" version="1.1">
<g id="surface1">
<path style="fill-rule:nonzero;fill:rgb(99.607843%,1.960784%,1.960784%);fill-opacity:1;stroke-width:1;stroke-linecap:butt;stroke-linejoin:miter;stroke:rgb(0%,0%,0%);stroke-opacity:1;stroke-miterlimit:4;" d="M 26.421875 16.453125 C 26.421875 22.492188 21.53125 27.382812 15.5 27.382812 C 9.46875 27.382812 4.578125 22.492188 4.578125 16.453125 C 4.578125 10.421875 9.46875 5.53125 15.5 5.53125 C 21.53125 5.53125 26.421875 10.421875 26.421875 16.453125 Z M 26.421875 16.453125 " transform="matrix(0.5,0,0,0.5,0,0)"/>
<path style="fill-rule:evenodd;fill:rgb(100%,100%,100%);fill-opacity:1;stroke-width:1;stroke-linecap:butt;stroke-linejoin:miter;stroke:rgb(0%,0%,0%);stroke-opacity:1;stroke-miterlimit:4;" d="M 26.242188 17.171875 C 25.21875 17.914062 24.257812 18.414062 22.960938 18.921875 C 18.226562 20.765625 12.398438 20.742188 7.695312 18.867188 C 6.5625 18.40625 5.570312 17.875 4.648438 17.242188 C 5.039062 22.992188 9.765625 27.445312 15.53125 27.445312 C 22.023438 27.1875 25.851562 22.085938 26.242188 17.171875 Z M 26.242188 17.171875 " transform="matrix(0.5,0,0,0.5,0,0)"/>
<path style=" stroke:none;fill-rule:evenodd;fill:rgb(0%,0%,0%);fill-opacity:1;" d="M 13.097656 7.988281 L 12.84375 8.191406 C 12.375 8.53125 11.929688 8.75 11.300781 8.996094 C 9.0625 9.863281 6.253906 9.855469 4.03125 8.96875 C 3.582031 8.789062 3.152344 8.570312 2.746094 8.308594 C 2.738281 8.300781 2.664062 8.242188 2.570312 8.175781 L 2.148438 8.894531 C 2.167969 8.90625 2.097656 9.078125 2.203125 9.148438 C 2.648438 9.4375 3.136719 9.6875 3.660156 9.898438 C 6.144531 10.886719 9.164062 10.898438 11.664062 9.929688 C 12.332031 9.664062 12.878906 9.402344 13.433594 9 L 13.414062 8.910156 L 13.351562 8.484375 Z M 13.097656 7.988281 "/>
<path style="fill-rule:nonzero;fill:rgb(100%,100%,100%);fill-opacity:1;stroke-width:1;stroke-linecap:butt;stroke-linejoin:miter;stroke:rgb(0%,0%,0%);stroke-opacity:1;stroke-miterlimit:4;" d="M 17.976562 19.6875 C 17.976562 21.015625 16.898438 22.09375 15.578125 22.09375 C 14.25 22.09375 13.179688 21.015625 13.179688 19.6875 C 13.179688 18.367188 14.25 17.289062 15.578125 17.289062 C 16.898438 17.289062 17.976562 18.367188 17.976562 19.6875 Z M 17.976562 19.6875 " transform="matrix(0.5,0,0,0.5,0,0)"/>
</g>
</svg>
